<?xml version="1.0" encoding="utf-8"?>
<!-- Generator: Adobe Illustrator 21.0.0, SVG Export Plug-In . SVG Version: 6.00 Build 0)  -->
<svg version="1.1" id="Layer_1" xmlns="http://www.w3.org/2000/svg" xmlns:xlink="http://www.w3.org/1999/xlink" x="0px" y="0px"
	 viewBox="0 0 175.5 175.5" style="enable-background:new 0 0 175.5 175.5;" xml:space="preserve">
<style type="text/css">
	.st0{fill:none;stroke:#1A5A94;stroke-width:4;stroke-miterlimit:10;}
	.st1{fill:#1A5A94;}
	.st2{fill:none;}
	.st3{fill:#FFCC4D;}
	.st4{fill:#1FBDC4;}
	.st5{fill:#EE3431;}
	.st6{fill:none;stroke:#1A5A94;stroke-width:4;stroke-linecap:round;stroke-linejoin:round;stroke-miterlimit:10;}
	.st7{fill:#FFFFFF;stroke:#1A5A94;stroke-width:4;stroke-miterlimit:10;}
	.st8{fill:none;stroke:#1A5A94;stroke-width:4;stroke-linecap:round;stroke-miterlimit:10;}
	.st9{fill:#1FBDC4;stroke:#1A5A94;stroke-width:4;stroke-miterlimit:10;}
	.st10{fill:#21BDC2;}
	.st11{fill:#FFCC4D;stroke:#1A5A94;stroke-width:4;stroke-linecap:round;stroke-miterlimit:10;}
	.st12{fill:#FFCC4D;stroke:#1A5A94;stroke-width:4;stroke-miterlimit:10;}
	.st13{fill:none;stroke:#1A5A94;stroke-width:3;stroke-linecap:round;stroke-miterlimit:10;}
	.st14{fill:#1FBDC4;stroke:#1A5A94;stroke-width:4;stroke-linecap:round;stroke-miterlimit:10;}
	.st15{fill:#1FBDC4;stroke:#1A5A94;stroke-width:3;stroke-linecap:round;stroke-miterlimit:10;}
	.st16{fill:#FFCC4D;stroke:#1A5A94;stroke-width:2;stroke-linecap:round;stroke-miterlimit:10;}
	.st17{fill:#EE3431;stroke:#1A5A94;stroke-width:2;stroke-linecap:round;stroke-miterlimit:10;}
	.st18{fill:#1FBDC4;stroke:#1A5A94;stroke-width:2;stroke-linecap:round;stroke-miterlimit:10;}
	.st19{fill:#FFFFFF;stroke:#1A5A94;stroke-width:2;stroke-linecap:round;stroke-miterlimit:10;}
	.st20{fill:none;stroke:#1A5A94;stroke-width:2;stroke-linecap:round;stroke-linejoin:round;stroke-miterlimit:10;}
	.st21{fill:#EE3431;stroke:#1A5A94;stroke-width:4;stroke-linecap:round;stroke-miterlimit:10;}
	.st22{fill:#1FBDC4;stroke:#1A5A94;stroke-width:2;stroke-linecap:round;stroke-linejoin:round;stroke-miterlimit:10;}
	.st23{fill:#FFCC4D;stroke:#1A5A94;stroke-width:2;stroke-linecap:round;stroke-linejoin:round;stroke-miterlimit:10;}
</style>
<g>
	<g>
		<path class="st8" d="M142.5,58.9H33c-1.1,0-2,0.9-2,2v53.7c0,1.1,0.9,2,2,2h35.2c0.8,0,1.5-0.5,1.8-1.2l4.9-12.1
			c0.3-0.7,1-1.2,1.8-1.2h21.9c0.8,0,1.5,0.5,1.8,1.2l4.9,12.1c0.3,0.7,1,1.2,1.8,1.2h35.2c1.1,0,2-0.9,2-2V60.9
			C144.5,59.8,143.6,58.9,142.5,58.9z"/>
		<path class="st8" d="M106,116.6l-5.5-13.3c-0.3-0.7-1-1.2-1.8-1.2H76.8c-0.8,0-1.5,0.5-1.8,1.2l-5.5,13.3"/>
	</g>
	<path class="st9" d="M65.8,82.9h-5.5v-5.5c0-1.7-1.3-3-3-3h-3c-1.7,0-3,1.3-3,3v5.5h-5.5c-1.7,0-3,1.3-3,3v3c0,1.7,1.3,3,3,3h5.5
		v5.5c0,1.7,1.3,3,3,3h3c1.7,0,3-1.3,3-3v-5.5h5.5c1.7,0,3-1.3,3-3v-3C68.8,84.2,67.4,82.9,65.8,82.9z"/>
	<ellipse transform="matrix(0.7071 -0.7071 0.7071 0.7071 -30.361 101.4132)" class="st0" cx="107.2" cy="87.4" rx="4.3" ry="4.3"/>
	
		<ellipse transform="matrix(0.7071 -0.7071 0.7071 0.7071 -24.5284 115.4945)" class="st0" cx="127.2" cy="87.4" rx="4.3" ry="4.3"/>
	
		<ellipse transform="matrix(0.7071 -0.7071 0.7071 0.7071 -34.4854 111.3702)" class="st0" cx="117.2" cy="97.3" rx="4.3" ry="4.3"/>
	
		<ellipse transform="matrix(0.7071 -0.7071 0.7071 0.7071 -20.2836 105.4876)" class="st0" cx="117.2" cy="77.2" rx="4.3" ry="4.3"/>
	<path class="st8" d="M96.4,58.9H79.1c0-4.8,3.9-8.6,8.6-8.6C92.5,50.3,96.4,54.1,96.4,58.9z"/>
	<circle class="st5" cx="117.2" cy="77.2" r="2.5"/>
	<circle class="st4" cx="127.2" cy="87.3" r="2.5"/>
	<circle class="st3" cx="117.2" cy="97.3" r="2.5"/>
	<circle class="st4" cx="107.2" cy="87.3" r="2.5"/>
</g>
</svg>
